<svg xmlns="http://www.w3.org/2000/svg" viewBox="0 0 273.586 547.228" height="104" width="104"><path d="M294.064 36.904c-3.46 62.976-22.019 124.532-46.448 182.35-49.574 116.458-143.509 210.479-254.802 269.07-26.653 14.06-54.612 26.988-83.44 35.192l-39.345-4.963C-26.759 486.15 66.54 422.757 135.724 339.714c65.661-81.085 107.168-182.101 115.881-286.148-5.302-18.073 6.684-17.981 20.466-16.662h21.993z"/><path d="M294.778 38.441c-32.711 66.282-78.277 126.848-134.429 175.084-27.038 22.595-58.643 43.026-93.792 48.428l-38.398-5.107c70.8-15.671 124.527-69.866 167.634-125.076 21.734-29.854 43.083-60.554 56.863-95.035l42.122 1.706z"/><path d="M294.741 36.555c13.952 71.51 43.174 139.958 82.589 201.088 3.748 11.42 35.43 31.122 24.491 34.844l-34.556 2.612c-46.053-45.121-70.347-106.478-93.406-165.37-4.943-22.093-24.341-56.573-17.058-72.547l37.94-.627z"/></svg>